<svg xmlns="http://www.w3.org/2000/svg" width="99" height="56" viewBox="0 0 99 56" shape-rendering="crispEdges">
  <mask id="m"><rect width="99" height="56" fill="#fff"/><g fill="#000"><circle cx="4" cy="0" r="2"/><circle cx="4" cy="56" r="2"/><circle cx="10" cy="0" r="2"/><circle cx="10" cy="56" r="2"/><circle cx="16" cy="0" r="2"/><circle cx="16" cy="56" r="2"/><circle cx="22" cy="0" r="2"/><circle cx="22" cy="56" r="2"/><circle cx="28" cy="0" r="2"/><circle cx="28" cy="56" r="2"/><circle cx="34" cy="0" r="2"/><circle cx="34" cy="56" r="2"/><circle cx="40" cy="0" r="2"/><circle cx="40" cy="56" r="2"/><circle cx="46" cy="0" r="2"/><circle cx="46" cy="56" r="2"/><circle cx="52" cy="0" r="2"/><circle cx="52" cy="56" r="2"/><circle cx="58" cy="0" r="2"/><circle cx="58" cy="56" r="2"/><circle cx="64" cy="0" r="2"/><circle cx="64" cy="56" r="2"/><circle cx="70" cy="0" r="2"/><circle cx="70" cy="56" r="2"/><circle cx="76" cy="0" r="2"/><circle cx="76" cy="56" r="2"/><circle cx="82" cy="0" r="2"/><circle cx="82" cy="56" r="2"/><circle cx="88" cy="0" r="2"/><circle cx="88" cy="56" r="2"/><circle cx="94" cy="0" r="2"/><circle cx="94" cy="56" r="2"/><circle cx="0" cy="4" r="2"/><circle cx="99" cy="4" r="2"/><circle cx="0" cy="10" r="2"/><circle cx="99" cy="10" r="2"/><circle cx="0" cy="16" r="2"/><circle cx="99" cy="16" r="2"/><circle cx="0" cy="22" r="2"/><circle cx="99" cy="22" r="2"/><circle cx="0" cy="28" r="2"/><circle cx="99" cy="28" r="2"/><circle cx="0" cy="34" r="2"/><circle cx="99" cy="34" r="2"/><circle cx="0" cy="40" r="2"/><circle cx="99" cy="40" r="2"/><circle cx="0" cy="46" r="2"/><circle cx="99" cy="46" r="2"/><circle cx="0" cy="52" r="2"/><circle cx="99" cy="52" r="2"/></g></mask>
  <g mask="url(#m)">
    <rect width="99" height="56" fill="#f4efe6"/>
    <rect x="5" y="5" width="89" height="46" fill="#0d2b1a"/>
    <g><rect x="13" y="15" width="3" height="3" fill="#e53935"/><rect x="16" y="15" width="3" height="3" fill="#e53935"/><rect x="22" y="15" width="3" height="3" fill="#e53935"/><rect x="25" y="15" width="3" height="3" fill="#e53935"/><rect x="10" y="18" width="3" height="3" fill="#e53935"/><rect x="13" y="18" width="3" height="3" fill="#e53935"/><rect x="16" y="18" width="3" height="3" fill="#e53935"/><rect x="19" y="18" width="3" height="3" fill="#e53935"/><rect x="22" y="18" width="3" height="3" fill="#e53935"/><rect x="25" y="18" width="3" height="3" fill="#e53935"/><rect x="28" y="18" width="3" height="3" fill="#e53935"/><rect x="10" y="21" width="3" height="3" fill="#e53935"/><rect x="13" y="21" width="3" height="3" fill="#e53935"/><rect x="16" y="21" width="3" height="3" fill="#e53935"/><rect x="19" y="21" width="3" height="3" fill="#e53935"/><rect x="22" y="21" width="3" height="3" fill="#e53935"/><rect x="25" y="21" width="3" height="3" fill="#e53935"/><rect x="28" y="21" width="3" height="3" fill="#e53935"/><rect x="13" y="24" width="3" height="3" fill="#e53935"/><rect x="16" y="24" width="3" height="3" fill="#e53935"/><rect x="19" y="24" width="3" height="3" fill="#e53935"/><rect x="22" y="24" width="3" height="3" fill="#e53935"/><rect x="25" y="24" width="3" height="3" fill="#e53935"/><rect x="16" y="27" width="3" height="3" fill="#e53935"/><rect x="19" y="27" width="3" height="3" fill="#e53935"/><rect x="22" y="27" width="3" height="3" fill="#e53935"/><rect x="19" y="30" width="3" height="3" fill="#e53935"/></g>
    <text x="90" y="25" text-anchor="end" font-family="Verdana, Tahoma, sans-serif" font-size="10" font-weight="bold" fill="#7ee787">OPEN</text>
    <text x="90" y="37" text-anchor="end" font-family="Verdana, Tahoma, sans-serif" font-size="7" fill="#7ee787">source ♥</text>
    <text x="10" y="47" font-family="Verdana, Tahoma, sans-serif" font-size="6" fill="#7ee787" opacity=".8">VV·2026</text>
  </g>
</svg>
